Coordinates
version=1
nRows=19
nColumns=24
inDegrees=yes

Units are S.I. units (second, meters, Newtons, ...)
If the header above contains a line with 'inDegrees', this indicates whether rotational values are in degrees (yes) or radians (no).

endheader
time	pelvis_tilt	pelvis_list	pelvis_rotation	pelvis_tx	pelvis_ty	pelvis_tz	hip_flexion_r	hip_adduction_r	hip_rotation_r	knee_angle_r	ankle_angle_r	subtalar_angle_r	mtp_angle_r	hip_flexion_l	hip_adduction_l	hip_rotation_l	knee_angle_l	ankle_angle_l	subtalar_angle_l	mtp_angle_l	lumbar_extension	lumbar_bending	lumbar_rotation
      3.66500000	     10.11450166	      2.47292983	   -181.34245178	      0.30025090	      0.53200986	     -1.21859430	     75.08131979	    -29.07425661	     -9.00621052	   -108.37109854	     39.56152850	     11.28234427	      0.00000000	     79.00074631	    -35.13295514	     -0.85918837	   -108.00816019	     39.65686902	     16.72487975	      0.00000000	    -12.59883921	      2.22771944	      4.02750399
      3.67000000	     10.14701661	      2.45643471	   -181.34934179	      0.30031056	      0.53384624	     -1.21854678	     74.88637562	    -29.02571184	     -9.11432880	   -108.01875810	     39.42929576	     11.29356302	      0.00000000	     78.75765613	    -35.10546043	     -1.05732586	   -107.67521003	     39.50966907	     16.69341587	      0.00000000	    -12.52488872	      2.21618793	      4.01111049
      3.67500000	     10.16426608	      2.34790415	   -181.32151791	      0.30036847	      0.53584693	     -1.21835265	     74.71525610	    -29.06516198	     -9.12309019	   -107.64682267	     39.31275556	     11.28107468	      0.00000000	     78.55391163	    -34.93935653	     -0.89523374	   -107.08772475	     38.93460755	     17.22527929	      0.00000000	    -12.47137099	      2.11372437	      3.91418264
      3.68000000	     10.17335108	      2.40339805	   -181.34103648	      0.30040647	      0.53792320	     -1.21854417	     74.40275640	    -28.93406997	     -9.32915273	   -107.24503240	     39.18162751	     11.23695335	      0.00000000	     78.13817217	    -35.04214949	     -1.54329298	   -106.90326978	     39.22479940	     16.61183084	      0.00000000	    -12.42541604	      2.14445604	      3.93429386
      3.68500000	     10.23930293	      2.30514277	   -181.28866878	      0.30048715	      0.54004430	     -1.21828751	     74.24799571	    -28.98411981	     -9.36760559	   -106.82969971	     39.01954002	     11.28449326	      0.00000000	     77.93449477	    -34.84031079	     -1.42639650	   -106.25410290	     38.69722785	     17.13124716	      0.00000000	    -12.31417367	      2.08461758	      3.82687645
      3.69000000	     10.29915219	      2.30966170	   -181.30692248	      0.30055370	      0.54228890	     -1.21831792	     74.01753635	    -28.90691884	     -9.53713744	   -106.40040136	     38.82120985	     11.28731817	      0.00000000	     77.67777216	    -34.83385237	     -1.65622193	   -105.88719617	     38.52222918	     17.10575732	      0.00000000	    -12.21243803	      2.08065239	      3.82053241
      3.69500000	     10.30672715	      2.33439966	   -181.33850984	      0.30057481	      0.54470398	     -1.21837271	     73.70388139	    -28.79283876	     -9.72394702	   -105.95497292	     38.67234465	     11.18489653	      0.00000000	     77.27525023	    -34.86538955	     -2.20642754	   -105.43369294	     38.45626823	     16.39622844	      0.00000000	    -12.17517563	      2.08724589	      3.84397314
      3.70000000	     10.35605598	      2.25302157	   -181.33448871	      0.30057259	      0.54716873	     -1.21813607	     73.48908269	    -28.79013789	     -9.79797522	   -105.49052179	     38.45496678	     11.15602178	      0.00000000	     77.00678781	    -34.74907775	     -2.10799665	   -104.94367869	     38.07687230	     17.07197716	      0.00000000	    -12.07977487	      2.03993200	      3.77367238
      3.70500000	     10.40402199	      2.27404219	   -181.34645350	      0.30064339	      0.54976417	     -1.21823859	     73.17544236	    -28.67979488	    -10.00175967	   -104.98135097	     38.27587676	     11.11886431	      0.00000000	     76.57930061	    -34.76073683	     -2.77727825	   -104.48697285	     38.05978032	     16.29468143	      0.00000000	    -11.99755592	      2.04681017	      3.75453250
      3.71000000	     10.46268996	      2.26247984	   -181.31745546	      0.30070936	      0.55241142	     -1.21826340	     72.85853733	    -28.61202334	    -10.10206585	   -104.43610080	     38.19536091	     11.11889060	      0.00000000	     76.25956528	    -34.68410279	     -3.02392787	   -103.98237256	     37.80794103	     16.29095131	      0.00000000	    -11.89645763	      2.02839093	      3.69191687
      3.71500000	     10.43293658	      2.16199097	   -181.20827697	      0.30052204	      0.55538972	     -1.21771552	     72.48023026	    -28.76308987	    -10.28401748	   -103.90606666	     37.92749512	     10.89773836	      0.00000000	     75.71386235	    -34.46080004	     -3.43607460	   -103.44915187	     37.65387553	     16.17766236	      0.00000000	    -11.86967362	      1.99976132	      3.51843484
      3.72000000	     10.53789495	      2.21024902	   -181.29382308	      0.30068187	      0.55816893	     -1.21810255	     72.21621011	    -28.52914518	    -10.50705749	   -103.35941455	     37.70788642	     10.89244130	      0.00000000	     75.44780865	    -34.53572512	     -3.64741123	   -102.89142806	     37.42057829	     16.17129346	      0.00000000	    -11.72216507	      1.99100589	      3.60356113
      3.72500000	     10.62419614	      2.22652794	   -181.31690723	      0.30071794	      0.56108787	     -1.21806085	     71.90931159	    -28.43037480	    -10.73092263	   -102.78235566	     37.46936889	     10.88237141	      0.00000000	     75.11778085	    -34.51082925	     -3.91626477	   -102.33319864	     37.20413310	     16.15579880	      0.00000000	    -11.58990033	      2.01702790	      3.58837586
      3.73000000	     10.64356489	      2.20739668	   -181.31199459	      0.30070747	      0.56418799	     -1.21803191	     71.52333039	    -28.36176335	    -10.93308510	   -102.18183453	     37.23774157	     10.81328709	      0.00000000	     74.66400963	    -34.45045813	     -4.24728613	   -101.73885723	     37.01882860	     16.11526898	      0.00000000	    -11.52355750	      2.00004350	      3.55708739
      3.73500000	     10.70740185	      2.17398060	   -181.29191230	      0.30072060	      0.56733937	     -1.21799927	     71.17570721	    -28.31058757	    -11.14167123	   -101.55803423	     36.97219927	     10.74443598	      0.00000000	     74.23963419	    -34.35112401	     -4.58214196	   -101.11943196	     36.76530389	     16.06536247	      0.00000000	    -11.40273985	      1.98726656	      3.46659313
      3.74000000	     10.75017726	      2.17779347	   -181.30527864	      0.30068068	      0.57059470	     -1.21804524	     70.77952939	    -28.21036120	    -11.38245630	   -100.92075141	     36.71086785	     10.73055672	      0.00000000	     73.77681349	    -34.35398572	     -4.95057773	   -100.67860006	     36.74130528	     16.17782312	      0.00000000	    -11.30609734	      1.97952053	      3.47600998
      3.74500000	     10.82073038	      2.16616877	   -181.30470771	      0.30071140	      0.57392987	     -1.21798179	     70.42166313	    -28.11103540	    -11.59163297	   -100.25893584	     36.43871527	     10.67938545	      0.00000000	     73.38410905	    -34.23962993	     -5.22107133	    -99.84400347	     36.26822631	     16.01752549	      0.00000000	    -11.18527478	      1.98519474	      3.43083891
      3.75000000	     10.84144812	      2.17223295	   -181.32003592	      0.30059416	      0.57734280	     -1.21800801	     69.98940175	    -28.00780455	    -11.84397037	    -99.60045504	     36.18248283	     10.78543718	      0.00000000	     72.86697015	    -34.22703355	     -5.60881739	    -99.35152764	     36.20772429	     16.01557296	      0.00000000	    -11.10263394	      1.99095358	      3.43298041
      3.75500000	     10.90581400	      2.15571522	   -181.30761817	      0.30054267	      0.58085174	     -1.21797845	     69.59282416	    -27.93238340	    -12.07951760	    -98.90904473	     35.91535505	     10.78409412	      0.00000000	     72.41029337	    -34.14456344	     -5.94307520	    -98.60533223	     36.03783414	     16.02189372	      0.00000000	    -10.97281794	      1.98203827	      3.38835372
